<svg id="Virus" xmlns="http://www.w3.org/2000/svg" viewBox="0 0 142.14 149.21"><defs><style>.cls-1{fill:#7dc9a0;}.cls-2{fill:#0b7b77;}.cls-3{font-size:20.91px;fill:#fff;font-family:MyriadPro-Bold, Myriad Pro;font-weight:700;}.cls-4{letter-spacing:-0.02em;}.cls-5{letter-spacing:-0.01em;}.cls-6{letter-spacing:-0.02em;}.cls-7{letter-spacing:-0.01em;}</style></defs><title>Fighting covid19</title><path class="cls-1" d="M674.79,440.75c-2.44-2.63-5.67-7.06-5.78-12.09,0-.84-2.11-.37-3.72.11a8.46,8.46,0,0,0-3.27,1.89c-1.22,1.15-2.68,2.73-1.95,3.16,4.3,2.61,6.51,7.62,7.57,11.05-1.59,1.9-2.17,4-1.29,5.56,1.34,2.32,5.54,2.41,9.38.19s5.85-5.89,4.51-8.21C679.36,440.88,677.23,440.31,674.79,440.75Z" transform="translate(-570.15 -315.36)"/><path class="cls-1" d="M607,440.75c2.44-2.63,5.67-7.06,5.78-12.09,0-.84,2.12-.37,3.73.11a8.49,8.49,0,0,1,3.26,1.89c1.23,1.15,2.68,2.73,2,3.16-4.3,2.61-6.52,7.62-7.58,11.05,1.59,1.9,2.17,4,1.29,5.56-1.34,2.32-5.54,2.41-9.38.19s-5.85-5.89-4.51-8.21C602.45,440.88,604.57,440.31,607,440.75Z" transform="translate(-570.15 -315.36)"/><path class="cls-1" d="M607,338c2.44,2.63,5.67,7.06,5.78,12.09,0,.84,2.12.37,3.73-.11a8.49,8.49,0,0,0,3.26-1.89c1.23-1.15,2.68-2.73,2-3.17-4.3-2.6-6.52-7.61-7.58-11,1.59-1.9,2.17-4,1.29-5.56-1.34-2.32-5.54-2.41-9.38-.2s-5.85,5.9-4.51,8.22C602.45,337.83,604.57,338.39,607,338Z" transform="translate(-570.15 -315.36)"/><path class="cls-1" d="M674.79,338c-2.44,2.63-5.67,7.06-5.78,12.09,0,.84-2.11.37-3.72-.11a8.46,8.46,0,0,1-3.27-1.89c-1.22-1.15-2.68-2.73-1.95-3.17,4.3-2.6,6.51-7.61,7.57-11-1.59-1.9-2.17-4-1.29-5.56,1.34-2.32,5.54-2.41,9.38-.2s5.85,5.9,4.51,8.22C679.36,337.83,677.23,338.39,674.79,338Z" transform="translate(-570.15 -315.36)"/><path class="cls-1" d="M703.27,385.22c-3.5.8-8.95,1.39-13.36-1-.74-.41-1.38,1.64-1.76,3.28a8.28,8.28,0,0,0,0,3.77c.38,1.64,1,3.69,1.76,3.27,4.41-2.42,9.86-1.83,13.36-1,.85,2.33,2.4,3.89,4.16,3.89,2.69,0,4.86-3.59,4.86-8s-2.17-8-4.86-8C705.67,381.34,704.12,382.89,703.27,385.22Z" transform="translate(-570.15 -315.36)"/><path class="cls-1" d="M579.17,385.22c3.5.8,9,1.39,13.36-1,.74-.41,1.38,1.64,1.77,3.28a8.57,8.57,0,0,1,0,3.77c-.39,1.64-1,3.69-1.77,3.27-4.41-2.42-9.85-1.83-13.35-1-.85,2.33-2.4,3.89-4.17,3.89-2.68,0-4.86-3.59-4.86-8s2.18-8,4.86-8C576.78,381.34,578.33,382.89,579.17,385.22Z" transform="translate(-570.15 -315.36)"/><circle class="cls-2" cx="70.75" cy="73.99" r="58.57"/><path class="cls-1" d="M645,324.38c-.79,3.5-1.38,9,1,13.36.4.75-1.65,1.39-3.28,1.77a8.57,8.57,0,0,1-3.77,0c-1.64-.38-3.69-1-3.28-1.77,2.42-4.4,1.84-9.85,1-13.35-2.33-.85-3.9-2.4-3.9-4.17,0-2.68,3.6-4.86,8-4.86s8,2.18,8,4.86C648.92,322,647.36,323.54,645,324.38Z" transform="translate(-570.15 -315.36)"/><path class="cls-1" d="M645,455.55c-.79-3.5-1.38-8.95,1-13.36.4-.74-1.65-1.38-3.28-1.77a8.57,8.57,0,0,0-3.77,0c-1.64.39-3.69,1-3.28,1.77,2.42,4.41,1.84,9.86,1,13.35-2.33.85-3.9,2.4-3.9,4.17,0,2.68,3.6,4.86,8,4.86s8-2.18,8-4.86C648.92,457.94,647.36,456.39,645,455.55Z" transform="translate(-570.15 -315.36)"/><path class="cls-1" d="M701.65,419.11c-3.43-1.06-8.44-3.28-11-7.58-.44-.72-2,.74-3.17,2a8.38,8.38,0,0,0-1.88,3.27c-.49,1.61-1,3.7-.11,3.72,5,.11,9.45,3.34,12.08,5.77-.43,2.45.13,4.58,1.66,5.46,2.32,1.34,6-.68,8.22-4.51s2.12-8-.2-9.38C705.67,416.94,703.55,417.51,701.65,419.11Z" transform="translate(-570.15 -315.36)"/><path class="cls-1" d="M701.42,359.6c-3.43,1.06-8.44,3.27-11,7.57-.44.73-2-.73-3.17-2a8.28,8.28,0,0,1-1.88-3.26c-.49-1.61-1-3.7-.11-3.72,5-.11,9.45-3.34,12.08-5.78-.43-2.44.13-4.57,1.66-5.45,2.32-1.35,6,.68,8.22,4.51s2.12,8-.2,9.37C705.44,361.77,703.32,361.19,701.42,359.6Z" transform="translate(-570.15 -315.36)"/><path class="cls-1" d="M582.58,361c3.43,1.06,8.44,3.28,11,7.58.44.72,2-.74,3.17-2a8.53,8.53,0,0,0,1.89-3.27c.48-1.61.95-3.7.1-3.72-5-.11-9.45-3.34-12.08-5.78.43-2.44-.13-4.57-1.66-5.45-2.32-1.34-6,.68-8.22,4.51s-2.12,8,.2,9.38C578.56,363.17,580.68,362.6,582.58,361Z" transform="translate(-570.15 -315.36)"/><path class="cls-1" d="M580.15,419.11c3.43-1.06,8.45-3.28,11.05-7.58.44-.72,2,.74,3.17,2a8.53,8.53,0,0,1,1.89,3.27c.48,1.61,1,3.7.11,3.72-5,.11-9.45,3.34-12.09,5.77.43,2.45-.13,4.58-1.66,5.46-2.32,1.34-6-.68-8.22-4.51s-2.12-8,.2-9.38C576.13,416.94,578.26,417.51,580.15,419.11Z" transform="translate(-570.15 -315.36)"/><ellipse class="cls-1" cx="667.13" cy="354.58" rx="10.54" ry="5.9" transform="translate(-658.06 65.71) rotate(-30)"/><ellipse class="cls-1" cx="615.74" cy="356.97" rx="10.54" ry="5.9" transform="translate(-629.74 -183.11) rotate(-11.7)"/><ellipse class="cls-1" cx="96.98" cy="105.03" rx="10.54" ry="5.9"/><ellipse class="cls-1" cx="617.72" cy="422.92" rx="5.9" ry="10.54" transform="translate(-627.55 431.06) rotate(-60)"/><text class="cls-3" transform="translate(31.79 66.87)"><tspan class="cls-4">F</tspan><tspan x="10.6" y="0">ig</tspan><tspan class="cls-5" x="28.56" y="0">h</tspan><tspan x="40.69" y="0">ting </tspan><tspan class="cls-6" x="-2.28" y="25.09">C</tspan><tspan class="cls-7" x="9.76" y="25.09">o</tspan><tspan x="21.64" y="25.09">vid-19</tspan></text></svg>