<svg id="Virus" xmlns="http://www.w3.org/2000/svg" viewBox="0 0 54.97 57.71"><defs><style>.cls-1{fill:#7dc9a0;}.cls-2{fill:#0b7b77;}</style></defs><title>mini virus</title><path class="cls-1" d="M76.78,556.75a7.57,7.57,0,0,1-2.24-4.68c0-.33-.82-.15-1.44,0a3.39,3.39,0,0,0-1.26.73c-.48.45-1,1.06-.76,1.23A7.58,7.58,0,0,1,74,558.34a2,2,0,0,0-.5,2.15c.52.9,2.14.93,3.63.07s2.26-2.28,1.74-3.17A1.91,1.91,0,0,0,76.78,556.75Z" transform="translate(-36.31 -508.25)"/><path class="cls-1" d="M50.56,556.75a7.67,7.67,0,0,0,2.24-4.68c0-.33.81-.15,1.44,0a3.39,3.39,0,0,1,1.26.73c.47.45,1,1.06.76,1.23a7.53,7.53,0,0,0-2.93,4.27,1.94,1.94,0,0,1,.49,2.15c-.51.9-2.14.93-3.62.07s-2.27-2.28-1.75-3.17A1.94,1.94,0,0,1,50.56,556.75Z" transform="translate(-36.31 -508.25)"/><path class="cls-1" d="M50.56,517a7.65,7.65,0,0,1,2.24,4.68c0,.32.81.14,1.44,0a3.14,3.14,0,0,0,1.26-.73c.47-.44,1-1,.76-1.22a7.56,7.56,0,0,1-2.93-4.27,1.94,1.94,0,0,0,.49-2.15c-.51-.9-2.14-.94-3.62-.08s-2.27,2.28-1.75,3.18A2,2,0,0,0,50.56,517Z" transform="translate(-36.31 -508.25)"/><path class="cls-1" d="M76.78,517a7.54,7.54,0,0,0-2.24,4.68c0,.32-.82.14-1.44,0a3.14,3.14,0,0,1-1.26-.73c-.48-.44-1-1-.76-1.22A7.61,7.61,0,0,0,74,515.4a2,2,0,0,1-.5-2.15c.52-.9,2.14-.94,3.63-.08s2.26,2.28,1.74,3.18A1.93,1.93,0,0,1,76.78,517Z" transform="translate(-36.31 -508.25)"/><path class="cls-1" d="M87.79,535.27a7.55,7.55,0,0,1-5.17-.4c-.28-.16-.53.64-.68,1.27a3.27,3.27,0,0,0,0,1.46c.15.63.4,1.42.68,1.26a7.61,7.61,0,0,1,5.17-.4c.33.9.93,1.51,1.61,1.51,1,0,1.88-1.39,1.88-3.1s-.84-3.1-1.88-3.1C88.72,533.77,88.12,534.37,87.79,535.27Z" transform="translate(-36.31 -508.25)"/><path class="cls-1" d="M39.79,535.27a7.55,7.55,0,0,0,5.17-.4c.29-.16.54.64.68,1.27a3.27,3.27,0,0,1,0,1.46c-.14.63-.39,1.42-.68,1.26a7.58,7.58,0,0,0-5.16-.4c-.33.9-.93,1.51-1.62,1.51-1,0-1.87-1.39-1.87-3.1s.84-3.1,1.87-3.1C38.87,533.77,39.47,534.37,39.79,535.27Z" transform="translate(-36.31 -508.25)"/><circle class="cls-2" cx="27.36" cy="28.62" r="22.65"/><path class="cls-1" d="M65.26,511.74a7.62,7.62,0,0,0,.41,5.17c.15.28-.64.53-1.27.68a3.27,3.27,0,0,1-1.46,0c-.63-.15-1.43-.4-1.27-.68a7.55,7.55,0,0,0,.4-5.17c-.9-.33-1.5-.93-1.5-1.61,0-1,1.39-1.88,3.1-1.88s3.1.84,3.1,1.88C66.77,510.81,66.17,511.41,65.26,511.74Z" transform="translate(-36.31 -508.25)"/><path class="cls-1" d="M65.26,562.47a7.62,7.62,0,0,1,.41-5.17c.15-.28-.64-.53-1.27-.68a3.27,3.27,0,0,0-1.46,0c-.63.15-1.43.4-1.27.68a7.55,7.55,0,0,1,.4,5.17c-.9.33-1.5.92-1.5,1.61,0,1,1.39,1.88,3.1,1.88s3.1-.84,3.1-1.88C66.77,563.39,66.17,562.8,65.26,562.47Z" transform="translate(-36.31 -508.25)"/><path class="cls-1" d="M87.16,548.38a7.61,7.61,0,0,1-4.27-2.93c-.17-.28-.78.28-1.23.75a3.43,3.43,0,0,0-.73,1.27c-.18.62-.37,1.43,0,1.43a7.65,7.65,0,0,1,4.68,2.24,2,2,0,0,0,.64,2.11c.9.52,2.32-.26,3.18-1.75s.82-3.1-.08-3.62A2,2,0,0,0,87.16,548.38Z" transform="translate(-36.31 -508.25)"/><path class="cls-1" d="M87.07,525.36a7.61,7.61,0,0,0-4.27,2.93c-.17.28-.78-.28-1.23-.76a3.24,3.24,0,0,1-.72-1.26c-.19-.62-.37-1.43,0-1.44a7.59,7.59,0,0,0,4.68-2.23,1.94,1.94,0,0,1,.64-2.11c.9-.52,2.32.26,3.18,1.74s.82,3.11-.08,3.63A2,2,0,0,1,87.07,525.36Z" transform="translate(-36.31 -508.25)"/><path class="cls-1" d="M41.11,525.9a7.6,7.6,0,0,1,4.28,2.93c.17.28.78-.28,1.22-.76a3.14,3.14,0,0,0,.73-1.26c.19-.62.37-1.43,0-1.44a7.58,7.58,0,0,1-4.67-2.23,1.94,1.94,0,0,0-.64-2.11c-.9-.52-2.33.26-3.18,1.74s-.82,3.11.08,3.63A1.93,1.93,0,0,0,41.11,525.9Z" transform="translate(-36.31 -508.25)"/><path class="cls-1" d="M40.17,548.38a7.6,7.6,0,0,0,4.28-2.93c.17-.28.78.28,1.22.75a3.18,3.18,0,0,1,.73,1.27c.19.62.37,1.43,0,1.43a7.65,7.65,0,0,0-4.67,2.24,2,2,0,0,1-.64,2.11c-.9.52-2.32-.26-3.18-1.75s-.82-3.1.08-3.62A1.93,1.93,0,0,1,40.17,548.38Z" transform="translate(-36.31 -508.25)"/><ellipse class="cls-1" cx="69.77" cy="530.8" rx="4.08" ry="2.28" transform="translate(-292.36 -402.25) rotate(-30)"/><ellipse class="cls-1" cx="20.03" cy="17.83" rx="4.08" ry="2.28"/><ellipse class="cls-1" cx="35.52" cy="38.34" rx="4.08" ry="2.28"/><ellipse class="cls-1" cx="55.51" cy="542.25" rx="2.28" ry="4.08" transform="translate(-478.15 -189.05) rotate(-60)"/></svg>