<svg id="Virus" xmlns="http://www.w3.org/2000/svg" viewBox="0 0 142.14 149.21"><defs><style>.cls-1{fill:#7dc9a0;}.cls-2{fill:#0b7b77;}.cls-3{font-size:20.91px;fill:#fff;font-family:MyriadPro-Bold, Myriad Pro;font-weight:700;}.cls-4{letter-spacing:-0.01em;}.cls-5{letter-spacing:0em;}</style></defs><title>Symptoms</title><path class="cls-1" d="M766.74,261.43c-2.44-2.63-5.68-7.06-5.78-12.09,0-.85-2.12-.38-3.73.11a8.42,8.42,0,0,0-3.26,1.89c-1.23,1.15-2.68,2.73-2,3.16,4.3,2.61,6.52,7.62,7.58,11.05-1.6,1.9-2.18,4-1.29,5.55,1.34,2.33,5.54,2.42,9.37.2s5.86-5.89,4.52-8.21C771.3,261.56,769.18,261,766.74,261.43Z" transform="translate(-662.1 -136.04)"/><path class="cls-1" d="M699,261.43c2.43-2.63,5.67-7.06,5.78-12.09,0-.85,2.11-.38,3.72.11a8.53,8.53,0,0,1,3.27,1.89c1.22,1.15,2.68,2.73,1.95,3.16-4.3,2.61-6.52,7.62-7.58,11.05,1.6,1.9,2.18,4,1.3,5.55-1.35,2.33-5.55,2.42-9.38.2s-5.85-5.89-4.51-8.21C694.39,261.56,696.51,261,699,261.43Z" transform="translate(-662.1 -136.04)"/><path class="cls-1" d="M699,158.64c2.44,2.63,5.68,7.06,5.79,12.09,0,.84,2.11.37,3.72-.12a8.38,8.38,0,0,0,3.27-1.88c1.22-1.15,2.68-2.73,1.95-3.17-4.3-2.61-6.52-7.62-7.58-11,1.6-1.9,2.18-4,1.3-5.56-1.35-2.32-5.55-2.41-9.38-.2s-5.85,5.9-4.51,8.22C694.39,158.51,696.51,159.07,699,158.64Z" transform="translate(-662.1 -136.04)"/><path class="cls-1" d="M766.74,158.64c-2.44,2.63-5.68,7.06-5.78,12.09,0,.84-2.12.37-3.73-.12a8.28,8.28,0,0,1-3.26-1.88c-1.23-1.15-2.68-2.73-2-3.17,4.3-2.61,6.52-7.62,7.58-11-1.6-1.91-2.18-4-1.29-5.56,1.34-2.32,5.54-2.41,9.37-.2s5.86,5.9,4.52,8.22C771.3,158.51,769.18,159.07,766.74,158.64Z" transform="translate(-662.1 -136.04)"/><path class="cls-1" d="M795.22,205.9c-3.5.8-9,1.39-13.36-1-.74-.41-1.38,1.64-1.77,3.28a8.57,8.57,0,0,0,0,3.77c.39,1.63,1,3.68,1.77,3.27,4.41-2.42,9.85-1.83,13.35-1,.85,2.34,2.4,3.9,4.17,3.9,2.68,0,4.86-3.59,4.86-8s-2.18-8-4.86-8C797.61,202,796.06,203.57,795.22,205.9Z" transform="translate(-662.1 -136.04)"/><path class="cls-1" d="M671.12,205.9c3.49.8,9,1.39,13.36-1,.74-.41,1.38,1.64,1.76,3.28a8.28,8.28,0,0,1,0,3.77c-.38,1.63-1,3.68-1.76,3.27-4.41-2.42-9.86-1.83-13.36-1-.85,2.34-2.4,3.9-4.16,3.9-2.69,0-4.86-3.59-4.86-8s2.17-8,4.86-8C668.72,202,670.27,203.57,671.12,205.9Z" transform="translate(-662.1 -136.04)"/><circle class="cls-2" cx="70.75" cy="73.99" r="58.57"/><path class="cls-1" d="M737,145.06c-.8,3.5-1.39,8.95,1,13.36.41.74-1.64,1.38-3.28,1.77a8.57,8.57,0,0,1-3.77,0c-1.64-.39-3.69-1-3.27-1.77,2.42-4.41,1.83-9.85,1-13.35-2.33-.85-3.89-2.4-3.89-4.17,0-2.68,3.59-4.86,8-4.86s8,2.18,8,4.86C740.86,142.67,739.31,144.22,737,145.06Z" transform="translate(-662.1 -136.04)"/><path class="cls-1" d="M737,276.23c-.8-3.5-1.39-9,1-13.36.41-.74-1.64-1.38-3.28-1.77a8.57,8.57,0,0,0-3.77,0c-1.64.39-3.69,1-3.27,1.77,2.42,4.41,1.83,9.85,1,13.35-2.33.85-3.89,2.4-3.89,4.17,0,2.68,3.59,4.86,8,4.86s8-2.18,8-4.86C740.86,278.62,739.31,277.07,737,276.23Z" transform="translate(-662.1 -136.04)"/><path class="cls-1" d="M793.6,239.79c-3.43-1.06-8.45-3.28-11.06-7.58-.44-.72-2,.74-3.17,2a8.44,8.44,0,0,0-1.88,3.27c-.49,1.61-1,3.7-.11,3.72,5,.1,9.45,3.34,12.08,5.77-.43,2.45.13,4.58,1.66,5.46,2.33,1.34,6-.68,8.22-4.52s2.13-8-.2-9.37C797.61,237.62,795.49,238.19,793.6,239.79Z" transform="translate(-662.1 -136.04)"/><path class="cls-1" d="M793.37,180.27c-3.43,1.06-8.45,3.28-11,7.58-.44.72-2-.73-3.18-2a8.52,8.52,0,0,1-1.88-3.26c-.49-1.61-1-3.71-.11-3.72,5-.11,9.45-3.34,12.09-5.78-.44-2.44.13-4.57,1.66-5.46,2.32-1.34,6,.69,8.22,4.52s2.12,8-.21,9.37C797.38,182.45,795.26,181.87,793.37,180.27Z" transform="translate(-662.1 -136.04)"/><path class="cls-1" d="M674.52,181.68c3.43,1.06,8.45,3.28,11.06,7.58.44.72,2-.74,3.17-2a8.51,8.51,0,0,0,1.88-3.27c.49-1.61,1-3.7.11-3.72-5-.11-9.45-3.34-12.09-5.78.44-2.44-.13-4.57-1.65-5.45-2.33-1.35-6,.68-8.22,4.51s-2.13,8,.2,9.37C670.51,183.85,672.63,183.27,674.52,181.68Z" transform="translate(-662.1 -136.04)"/><path class="cls-1" d="M672.1,239.79c3.42-1.06,8.44-3.28,11-7.58.44-.72,2,.74,3.17,2a8.44,8.44,0,0,1,1.88,3.27c.49,1.61,1,3.7.11,3.72-5,.1-9.45,3.34-12.08,5.77.43,2.45-.13,4.58-1.66,5.46-2.33,1.34-6-.68-8.22-4.52s-2.12-8,.2-9.37C668.08,237.62,670.2,238.19,672.1,239.79Z" transform="translate(-662.1 -136.04)"/><ellipse class="cls-1" cx="751.82" cy="184.99" rx="10.54" ry="5.9" transform="translate(-653.87 264.65) rotate(-30)"/><ellipse class="cls-1" cx="713.87" cy="182.15" rx="10.54" ry="5.9" transform="translate(-684.2 12.48) rotate(-11.7)"/><ellipse class="cls-1" cx="91.83" cy="99.13" rx="10.54" ry="5.9"/><ellipse class="cls-1" cx="712.08" cy="244.13" rx="5.9" ry="10.54" transform="translate(-517.48 602.7) rotate(-60)"/><text class="cls-3" transform="translate(21.21 81.93)"><tspan class="cls-4">S</tspan><tspan x="10.98" y="0">ymp</tspan><tspan class="cls-5" x="52.39" y="0">t</tspan><tspan x="59.96" y="0">oms</tspan></text></svg>