<svg id="filled_outline" height="512" viewBox="0 0 512 512" width="512" xmlns="http://www.w3.org/2000/svg" data-name="filled outline"><path d="m87.942 343.923-48 120h-16l26.824-152h37.176z" fill="#db8638"/><path d="m159.942 223.923h288v40h-288z" fill="#d1e4ff"/><path d="m159.942 183.923h328v40h-328z" fill="#db8638"/><path d="m447.942 463.923v-16l-48-32-40 24v24z" fill="#c5dafa"/><path d="m359.942 439.923 40-24-96-136h-32v48z" fill="#718799"/><path d="m463.94222 183.92284v-28.17084a61.74 61.74 0 0 0 -31.10838-53.60533h-.00006a80.49553 80.49553 0 0 0 -53.17037-9.51067 80.4955 80.4955 0 0 1 -38.68841-3.03556l-53.0328-17.6776h-56l-56 24v88z" fill="#548aff"/><path d="m310.65218 81.23283a24.00314 24.00314 0 0 1 -10.71 20.02l-4 2.67-41.812 27.87466a24.56289 24.56289 0 0 1 -13.62505 4.12534 24.56292 24.56292 0 0 1 -24.56291-24.56292v-33.43707l29.93994-22.45a37.70855 37.70855 0 0 1 33.57007-5.93 37.30269 37.30269 0 0 1 9.99 4.72l10.5 6.99a24.05318 24.05318 0 0 1 10.71 19.98z" fill="#ffceb6"/><path d="m310.65218 81.23283a24.00314 24.00314 0 0 1 -10.71 20.02l-4 2.67-24-24h-56v-2l29.93994-22.45a37.70855 37.70855 0 0 1 33.57007-5.93 37.30269 37.30269 0 0 1 9.99 4.72l10.5 6.99a24.05318 24.05318 0 0 1 10.71 19.98z" fill="#c47220"/><path d="m215.94222 343.92284h-120a72.00575 72.00575 0 0 1 -72-72v-128a47.99956 47.99956 0 0 1 48 48v40a63.9952 63.9952 0 0 0 64 64h32a48.004 48.004 0 0 1 48 48z" fill="#e0edff"/><path d="m191.942 343.923 24 120h-16l-48-120z" fill="#db8638"/><path d="m351.94222 183.92284h64v-12.82012a43.17988 43.17988 0 0 0 -43.17988-43.17988h-20.82012z" fill="#ffceb6"/><path d="m167.94222 207.92284 48-64 28.28428 28.28429a40 40 0 0 0 28.28427 11.71573h79.43146v-56h-72l-29.23991-33.417a89.556 89.556 0 0 0 -67.39776-30.583h-.00011a89.556 89.556 0 0 0 -84.45044 59.75l-26.91178 76.25v8z" fill="#ffc431"/><path d="m343.942 415.923 48 32v16h-88v-24z" fill="#d1e4ff"/><path d="m343.94222 415.92284-40 24-64-144h-104a63.9952 63.9952 0 0 1 -64-64v-24h96l111.52 34.85a31.97771 31.97771 0 0 1 21.22 21.75z" fill="#8098ab"/><path d="m447.942 223.923h40v240h-40z" fill="#e0edff"/><path d="m447.942 303.923-48-40h48z" fill="#c5dafa"/><path d="m488 176h-16v-20.1709a69.89171 69.89171 0 0 0 -35.13916-60.55127 88.74993 88.74993 0 0 0 -58.45459-10.45556 72.77 72.77 0 0 1 -34.84375-2.73389l-25.82141-8.6073a32.148 32.148 0 0 0 -13.30359-18.80383l-10.49512-6.99707a45.72846 45.72846 0 0 0 -52.80322 1.46582l-19.54687 14.66009a97.54775 97.54775 0 0 0 -130.22461 57.28131l-16.65577 47.19153a56.06506 56.06506 0 0 0 -50.71191-32.27893 7.99977 7.99977 0 0 0 -8 8v128a79.7486 79.7486 0 0 0 23.73413 56.80542l-23.61255 133.80444a7.99965 7.99965 0 0 0 7.87842 9.39014h16a7.99975 7.99975 0 0 0 7.42773-5.02881l46.01441-115.03613c.85144.02694 1.70007.06494 2.55786.06494h50.58374l45.98853 114.97119a7.99975 7.99975 0 0 0 7.42773 5.02881h16a8.00053 8.00053 0 0 0 7.84473-9.56885l-22.08619-110.43115h14.24146a7.99977 7.99977 0 0 0 8-8 55.82364 55.82364 0 0 0 -16.86169-40h27.663l61.19869 137.69775v22.30225a7.99977 7.99977 0 0 0 8 8h184a7.99977 7.99977 0 0 0 8-8v-280a7.99977 7.99977 0 0 0 -8-8zm-8 40h-259.57922l-39.22693-12.2583 8.80615-11.7417h290zm-129.11572 194.97461-24.32764-85.14722 61.93848 87.74622-17.74341 10.64612zm-37.64478-131.7572-2.06225-7.21741h85.926l42.89675 35.74731v125.30469l-34.32324-22.88208zm126.7605 7.70202-17.9032-14.91943h17.9032zm0-30.91943h-134.015a39.85855 39.85855 0 0 0 -24.07923-20.78613l-10.28443-3.21387h168.37866zm-203.31348-80h-34.68652l14.86548-19.821zm136.13379-40a35.21979 35.21979 0 0 1 35.17969 35.17969v4.82031h-48v-40zm-55.38659-45.7561 21.06921 7.02319a88.83262 88.83262 0 0 0 42.53369 3.3374 72.70817 72.70817 0 0 1 47.88574 8.56494 53.85809 53.85809 0 0 1 27.07764 46.65967v20.1709h-32v-4.82031a51.23748 51.23748 0 0 0 -51.17969-51.17969h-86.39843l18.01562-12.01025a31.791 31.791 0 0 0 12.99622-17.74585zm-43.40149 18.7868-17.25147-19.71576c-.38867-.44427-.78638-.87866-1.18225-1.31494h13.08749l14.75708 14.75677zm-23.29346-47.0849a29.72976 29.72976 0 0 1 34.32812-.95312l10.49561 6.99755a16.033 16.033 0 0 1 1.38672 25.64545l-19.29248-19.29242a7.99877 7.99877 0 0 0 -5.65674-2.34326h-34.667zm-144.2832 64.4668a81.55637 81.55637 0 0 1 138.28418-26.56153l29.23974 33.417a8.00028 8.00028 0 0 0 6.02051 2.73193h64v40h-71.43164a31.79176 31.79176 0 0 1 -22.62744-9.37256l-52.28418-52.28418-11.31348 11.31348 19.094 19.09393-41.43702 55.24933h-83.5166zm-71.87207 329.5874h-1.04834l20.4624-115.95166a79.5394 79.5394 0 0 0 23.09692 9.67493zm171.6582 0h-.8252l-41.60034-104h21.62537zm.95459-120h-111.19629a64.0727 64.0727 0 0 1 -64-64v-119.19629a40.07061 40.07061 0 0 1 32 39.19629v40a72.08124 72.08124 0 0 0 72 72h32a40.07061 40.07061 0 0 1 39.19629 32zm40.11426-43.249a8 8 0 0 0 -7.31055-4.751h-104a56.06353 56.06353 0 0 1 -56-56v-16h86.77942l110.35388 34.48535a23.93376 23.93376 0 0 1 15.918 16.31445l41.57056 145.49756-26.98389 16.19019zm136.68945 163.249h-72v-11.47046l31.775-19.06494 40.225 26.81665zm1.48193-21.96 14.29285-8.57568 40.22522 26.81693v3.71875h-40v-8a7.99943 7.99943 0 0 0 -3.5625-6.65625zm94.51807 21.96h-24v-224h24z"/></svg>