<svg id="Virus" xmlns="http://www.w3.org/2000/svg" viewBox="0 0 244.75 256.91"><defs><style>.cls-1{fill:#7dc9a0;}.cls-2{fill:#0b7b77;}.cls-3{font-size:36px;fill:#fff;font-family:MyriadPro-Bold, Myriad Pro;font-weight:700;}.cls-4{letter-spacing:0em;}.cls-5{letter-spacing:0.02em;}</style></defs><title>Virus Start</title><path class="cls-1" d="M257.81,387.44c-4.2-4.53-9.77-12.16-10-20.82,0-1.45-3.64-.64-6.42.2a14.44,14.44,0,0,0-5.61,3.24c-2.12,2-4.62,4.7-3.37,5.46,7.4,4.49,11.22,13.11,13.05,19-2.75,3.27-3.75,6.93-2.23,9.56,2.31,4,9.54,4.16,16.15.34s10.08-10.14,7.77-14.14C265.67,387.66,262,386.69,257.81,387.44Z" transform="translate(-77.63 -171.54)"/><path class="cls-1" d="M141.09,387.44c4.2-4.53,9.77-12.16,10-20.82,0-1.45,3.64-.64,6.41.2a14.41,14.41,0,0,1,5.62,3.24c2.11,2,4.62,4.7,3.37,5.46-7.41,4.49-11.22,13.11-13,19,2.75,3.27,3.75,6.93,2.23,9.56-2.31,4-9.55,4.16-16.15.34s-10.08-10.14-7.77-14.14C133.23,387.66,136.89,386.69,141.09,387.44Z" transform="translate(-77.63 -171.54)"/><path class="cls-1" d="M141.09,210.45c4.2,4.53,9.77,12.16,10,20.81,0,1.46,3.64.65,6.41-.19a14.41,14.41,0,0,0,5.62-3.24c2.11-2,4.62-4.71,3.37-5.46-7.41-4.49-11.22-13.11-13-19,2.75-3.27,3.75-6.93,2.23-9.56-2.31-4-9.55-4.16-16.15-.34s-10.08,10.14-7.77,14.14C133.23,210.23,136.89,211.2,141.09,210.45Z" transform="translate(-77.63 -171.54)"/><path class="cls-1" d="M257.81,210.45c-4.2,4.53-9.77,12.16-10,20.81,0,1.46-3.64.65-6.42-.19a14.57,14.57,0,0,1-5.61-3.24c-2.12-2-4.62-4.71-3.37-5.46,7.4-4.49,11.22-13.12,13.05-19-2.75-3.27-3.75-6.93-2.23-9.56,2.31-4,9.54-4.16,16.15-.35s10.08,10.15,7.77,14.15C265.67,210.23,262,211.2,257.81,210.45Z" transform="translate(-77.63 -171.54)"/><path class="cls-1" d="M306.84,291.83c-6,1.37-15.41,2.38-23-1.78-1.28-.7-2.38,2.83-3,5.65a14.51,14.51,0,0,0,0,6.49c.66,2.82,1.76,6.35,3,5.64,7.59-4.17,17-3.16,23-1.79,1.47,4,4.14,6.71,7.18,6.71,4.62,0,8.36-6.19,8.36-13.81s-3.74-13.8-8.36-13.8C311,285.14,308.3,287.82,306.84,291.83Z" transform="translate(-77.63 -171.54)"/><path class="cls-1" d="M93.16,291.83c6,1.37,15.41,2.38,23-1.78,1.28-.7,2.38,2.83,3,5.65a14.51,14.51,0,0,1,0,6.49c-.66,2.82-1.76,6.35-3,5.64-7.59-4.17-17-3.16-23-1.79-1.47,4-4.14,6.71-7.18,6.71-4.62,0-8.36-6.19-8.36-13.81s3.74-13.8,8.36-13.8C89,285.14,91.7,287.82,93.16,291.83Z" transform="translate(-77.63 -171.54)"/><circle class="cls-2" cx="121.82" cy="127.4" r="100.85"/><path class="cls-1" d="M206.56,187.07c-1.37,6-2.38,15.42,1.79,23,.69,1.28-2.84,2.38-5.66,3a14.51,14.51,0,0,1-6.49,0c-2.82-.66-6.34-1.76-5.64-3,4.17-7.59,3.16-17,1.79-23-4-1.46-6.71-4.13-6.71-7.17,0-4.62,6.19-8.37,13.81-8.37s13.81,3.75,13.81,8.37C213.26,183,210.57,185.62,206.56,187.07Z" transform="translate(-77.63 -171.54)"/><path class="cls-1" d="M206.56,412.93c-1.37-6-2.38-15.42,1.79-23,.69-1.28-2.84-2.38-5.66-3a14.51,14.51,0,0,0-6.49,0c-2.82.66-6.34,1.76-5.64,3,4.17,7.59,3.16,17,1.79,23-4,1.46-6.71,4.13-6.71,7.17,0,4.62,6.19,8.37,13.81,8.37s13.81-3.75,13.81-8.37C213.26,417.05,210.57,414.38,206.56,412.93Z" transform="translate(-77.63 -171.54)"/><path class="cls-1" d="M304.05,350.18c-5.9-1.82-14.54-5.64-19-13.05-.75-1.24-3.47,1.27-5.46,3.38a14.41,14.41,0,0,0-3.24,5.62c-.84,2.77-1.65,6.38-.19,6.4,8.66.19,16.28,5.75,20.81,10-.74,4.21.22,7.88,2.86,9.4,4,2.31,10.34-1.17,14.15-7.78s3.65-13.82-.35-16.13C311,346.44,307.32,347.43,304.05,350.18Z" transform="translate(-77.63 -171.54)"/><path class="cls-1" d="M303.66,247.7c-5.9,1.83-14.54,5.65-19,13.05-.76,1.25-3.48-1.26-5.46-3.37a14.7,14.7,0,0,1-3.25-5.62c-.83-2.77-1.64-6.38-.18-6.41,8.65-.18,16.27-5.75,20.8-9.94-.74-4.21.23-7.88,2.86-9.4,4-2.31,10.34,1.17,14.16,7.78s3.65,13.82-.35,16.13C310.57,251.44,306.92,250.46,303.66,247.7Z" transform="translate(-77.63 -171.54)"/><path class="cls-1" d="M99,250.12c5.91,1.82,14.54,5.64,19,13.05.76,1.24,3.48-1.27,5.46-3.38a14.56,14.56,0,0,0,3.25-5.62c.84-2.77,1.64-6.38.18-6.4-8.65-.19-16.27-5.75-20.8-10,.74-4.21-.23-7.88-2.86-9.4-4-2.31-10.34,1.18-14.15,7.78s-3.66,13.83.34,16.14C92.11,253.86,95.76,252.87,99,250.12Z" transform="translate(-77.63 -171.54)"/><path class="cls-1" d="M94.84,350.18c5.91-1.82,14.54-5.64,19-13.05.76-1.24,3.48,1.27,5.46,3.38a14.56,14.56,0,0,1,3.25,5.62c.84,2.77,1.65,6.38.19,6.4-8.66.19-16.28,5.75-20.81,10,.74,4.21-.23,7.88-2.86,9.4-4,2.31-10.34-1.17-14.15-7.78s-3.66-13.82.34-16.13C87.93,346.44,91.58,347.43,94.84,350.18Z" transform="translate(-77.63 -171.54)"/><ellipse class="cls-1" cx="226.61" cy="271.92" rx="18.15" ry="10.15" transform="matrix(0.87, -0.5, 0.5, 0.87, -183.23, -21.81)"/><ellipse class="cls-1" cx="166.78" cy="250.93" rx="18.15" ry="10.15" transform="translate(-125.04 -132.52) rotate(-11.7)"/><ellipse class="cls-1" cx="158.13" cy="170.69" rx="18.15" ry="10.15"/><ellipse class="cls-1" cx="157.85" cy="332.08" rx="10.15" ry="18.15" transform="translate(-286.29 131.2) rotate(-60)"/><text class="cls-3" transform="translate(82.81 136.74)"><tspan class="cls-4">S</tspan><tspan x="19.26" y="0">ta</tspan><tspan class="cls-5" x="51.48" y="0">r</tspan><tspan x="65.92" y="0">t </tspan></text></svg>