<svg id="Virus" xmlns="http://www.w3.org/2000/svg" viewBox="0 0 142.14 149.21"><defs><style>.cls-1{fill:#7dc9a0;}.cls-2{fill:#0b7b77;}.cls-3{font-size:20.91px;fill:#fff;font-family:MyriadPro-Bold, Myriad Pro;font-weight:700;}.cls-4{letter-spacing:-0.01em;}.cls-5{letter-spacing:-0.01em;}.cls-6{letter-spacing:-0.01em;}</style></defs><title>What is covid19</title><path class="cls-1" d="M580.4,260.82c-2.43-2.64-5.67-7.07-5.78-12.09,0-.85-2.11-.38-3.72.11a8.51,8.51,0,0,0-3.27,1.88c-1.22,1.15-2.68,2.73-2,3.17,4.3,2.61,6.52,7.62,7.58,11.05-1.6,1.9-2.18,4-1.3,5.55,1.35,2.33,5.55,2.41,9.38.2s5.85-5.89,4.51-8.22C585,260.94,582.85,260.38,580.4,260.82Z" transform="translate(-475.76 -135.43)"/><path class="cls-1" d="M512.62,260.82c2.44-2.64,5.67-7.07,5.78-12.09,0-.85,2.12-.38,3.73.11a8.4,8.4,0,0,1,3.26,1.88c1.23,1.15,2.68,2.73,2,3.17-4.3,2.61-6.52,7.62-7.58,11.05,1.6,1.9,2.18,4,1.29,5.55-1.34,2.33-5.54,2.41-9.37.2s-5.86-5.89-4.52-8.22C508.06,260.94,510.18,260.38,512.62,260.82Z" transform="translate(-475.76 -135.43)"/><path class="cls-1" d="M512.62,158c2.44,2.64,5.67,7.07,5.78,12.09,0,.85,2.12.38,3.73-.11a8.4,8.4,0,0,0,3.26-1.88c1.23-1.15,2.68-2.73,2-3.17-4.3-2.61-6.52-7.62-7.58-11,1.6-1.9,2.18-4,1.29-5.55-1.34-2.33-5.54-2.41-9.37-.2s-5.86,5.89-4.52,8.22C508.06,157.9,510.18,158.46,512.62,158Z" transform="translate(-475.76 -135.43)"/><path class="cls-1" d="M580.4,158c-2.43,2.64-5.67,7.07-5.78,12.09,0,.85-2.11.38-3.72-.11a8.51,8.51,0,0,1-3.27-1.88c-1.22-1.15-2.68-2.73-2-3.17,4.3-2.61,6.52-7.62,7.58-11-1.6-1.9-2.18-4-1.3-5.55,1.35-2.33,5.55-2.41,9.38-.2s5.85,5.89,4.51,8.22C585,157.9,582.85,158.46,580.4,158Z" transform="translate(-475.76 -135.43)"/><path class="cls-1" d="M608.88,205.29c-3.49.8-9,1.38-13.36-1-.74-.4-1.38,1.65-1.76,3.29a8.23,8.23,0,0,0,0,3.76c.38,1.64,1,3.69,1.76,3.28,4.41-2.42,9.86-1.83,13.36-1,.85,2.33,2.4,3.9,4.16,3.9,2.69,0,4.86-3.59,4.86-8s-2.17-8-4.86-8C611.28,201.4,609.73,203,608.88,205.29Z" transform="translate(-475.76 -135.43)"/><path class="cls-1" d="M484.78,205.29c3.5.8,9,1.38,13.36-1,.74-.4,1.38,1.65,1.77,3.29a8.52,8.52,0,0,1,0,3.76c-.39,1.64-1,3.69-1.77,3.28-4.41-2.42-9.85-1.83-13.35-1-.85,2.33-2.4,3.9-4.17,3.9-2.68,0-4.86-3.59-4.86-8s2.18-8,4.86-8C482.39,201.4,483.94,203,484.78,205.29Z" transform="translate(-475.76 -135.43)"/><circle class="cls-2" cx="70.75" cy="73.99" r="58.57"/><path class="cls-1" d="M550.64,144.45c-.79,3.5-1.38,9,1,13.36.4.74-1.64,1.38-3.28,1.77a8.57,8.57,0,0,1-3.77,0c-1.64-.39-3.69-1-3.28-1.77,2.42-4.41,1.84-9.86,1-13.35-2.33-.85-3.9-2.4-3.9-4.17,0-2.68,3.6-4.86,8-4.86s8,2.18,8,4.86C554.53,142.06,553,143.61,550.64,144.45Z" transform="translate(-475.76 -135.43)"/><path class="cls-1" d="M550.64,275.62c-.79-3.5-1.38-9,1-13.36.4-.75-1.64-1.39-3.28-1.77a8.57,8.57,0,0,0-3.77,0c-1.64.38-3.69,1-3.28,1.77,2.42,4.4,1.84,9.85,1,13.35-2.33.85-3.9,2.4-3.9,4.17,0,2.68,3.6,4.86,8,4.86s8-2.18,8-4.86C554.53,278,553,276.46,550.64,275.62Z" transform="translate(-475.76 -135.43)"/><path class="cls-1" d="M607.26,239.18c-3.42-1.06-8.44-3.28-11-7.58-.44-.72-2,.73-3.17,2a8.47,8.47,0,0,0-1.88,3.26c-.49,1.61-1,3.71-.11,3.72,5,.11,9.45,3.34,12.08,5.78-.43,2.45.13,4.57,1.66,5.46,2.32,1.34,6-.68,8.22-4.52s2.12-8-.2-9.37C611.28,237,609.16,237.58,607.26,239.18Z" transform="translate(-475.76 -135.43)"/><path class="cls-1" d="M607,179.66c-3.42,1.06-8.44,3.28-11,7.58-.44.72-2-.73-3.17-2a8.47,8.47,0,0,1-1.88-3.26c-.49-1.61-1-3.71-.11-3.72,5-.11,9.45-3.34,12.08-5.78-.43-2.45.13-4.58,1.66-5.46,2.33-1.34,6,.68,8.22,4.52s2.12,8-.2,9.37C611.05,181.83,608.93,181.26,607,179.66Z" transform="translate(-475.76 -135.43)"/><path class="cls-1" d="M488.19,181.06c3.43,1.06,8.44,3.28,11.05,7.58.44.72,2-.73,3.17-2a8.49,8.49,0,0,0,1.89-3.26c.48-1.61.95-3.71.11-3.72-5-.11-9.46-3.34-12.09-5.78.43-2.44-.13-4.57-1.66-5.46-2.32-1.34-6,.68-8.22,4.52s-2.12,8,.2,9.37C484.17,183.23,486.29,182.66,488.19,181.06Z" transform="translate(-475.76 -135.43)"/><path class="cls-1" d="M485.76,239.18c3.43-1.06,8.45-3.28,11.05-7.58.44-.72,2,.73,3.18,2a8.6,8.6,0,0,1,1.88,3.26c.49,1.61,1,3.71.11,3.72-5,.11-9.45,3.34-12.09,5.78.44,2.45-.13,4.57-1.66,5.46-2.32,1.34-6-.68-8.22-4.52s-2.12-8,.21-9.37C481.75,237,483.87,237.58,485.76,239.18Z" transform="translate(-475.76 -135.43)"/><ellipse class="cls-1" cx="572.57" cy="180.68" rx="10.54" ry="5.9" transform="matrix(0.87, -0.5, 0.5, 0.87, -489.39, 175.06)"/><ellipse class="cls-1" cx="527.54" cy="181.54" rx="10.54" ry="5.9" transform="translate(-501.61 -24.7) rotate(-11.7)"/><ellipse class="cls-1" cx="96.81" cy="106.98" rx="10.54" ry="5.9"/><ellipse class="cls-1" cx="513.35" cy="244.25" rx="5.9" ry="10.54" transform="translate(-430.61 431.27) rotate(-60)"/><text class="cls-3" transform="translate(36.64 70)"><tspan class="cls-4">W</tspan><tspan x="18.4" y="0">h</tspan><tspan class="cls-4" x="30.65" y="0">a</tspan><tspan x="41.52" y="0">t is </tspan><tspan class="cls-5" x="-6.03" y="25.09">c</tspan><tspan class="cls-6" x="3.17" y="25.09">o</tspan><tspan x="15.04" y="25.09">vid-19</tspan></text></svg>